<svg width="26" height="26" viewBox="0 0 26 26" fill="none" xmlns="http://www.w3.org/2000/svg">
<g opacity="0.3">
<path d="M9.15017 2.28391C8.82414 2.14648 8.48665 2.06536 8.15997 2.07363C6.99897 2.07713 6.03104 2.80247 5.73204 3.89683C5.64902 4.20096 5.62261 4.52163 5.5784 4.83594C5.52051 5.24983 5.23042 5.5336 4.8115 5.58195C4.56944 5.60995 4.32642 5.63508 4.08754 5.68057C2.77894 5.92998 1.88449 7.18723 2.11033 8.50237C2.17458 8.87713 2.33776 9.23725 2.47549 9.59673C2.64471 10.0389 2.55851 10.3946 2.18539 10.68C2.01713 10.8088 1.84504 10.9332 1.68123 11.0678C0.565389 11.9843 0.448334 13.6545 1.44139 14.6992C1.67296 14.9429 1.95892 15.135 2.22229 15.3479C2.54578 15.6097 2.64471 15.9708 2.49044 16.357C2.41378 16.5488 2.32917 16.7371 2.25251 16.929C1.66755 18.3955 2.53783 20.0065 4.08658 20.3157C4.35632 20.3698 4.63274 20.3883 4.90374 20.4357C5.26541 20.499 5.52687 20.7824 5.57554 21.1473C5.60703 21.3837 5.63343 21.6207 5.67033 21.8561C5.88281 23.2091 7.24898 24.1686 8.58557 23.8804C8.94373 23.8034 9.28568 23.6456 9.6308 23.5129C10.0367 23.3571 10.3961 23.4487 10.6623 23.7932C10.7791 23.944 10.8933 24.097 11.0097 24.2481C12.0158 25.5553 13.9571 25.5655 14.973 24.2688C15.1006 24.1059 15.2224 23.9389 15.3496 23.776C15.5974 23.4585 15.9699 23.3558 16.3433 23.5043C16.5501 23.5864 16.7521 23.6796 16.9595 23.7598C18.3517 24.2984 19.8878 23.5257 20.2726 22.0817C20.355 21.7715 20.377 21.4451 20.4269 21.1263C20.4832 20.7681 20.7437 20.4961 21.1006 20.435C21.3144 20.3985 21.53 20.3724 21.7457 20.3466C23.178 20.1751 24.1886 18.7709 23.8689 17.3661C23.7935 17.0339 23.6466 16.7168 23.5209 16.3974C23.3504 15.9647 23.4398 15.6087 23.8056 15.3262C23.9653 15.2034 24.1281 15.0851 24.2859 14.9597C25.3916 14.0814 25.5617 12.457 24.6355 11.3932C24.3883 11.1091 24.0652 10.8906 23.7706 10.6494C23.4582 10.394 23.3539 10.0249 23.5037 9.6524C23.5848 9.45103 23.6742 9.25283 23.7537 9.05082C24.2783 7.71628 23.5906 6.21853 22.2266 5.77315C21.8885 5.66276 21.5224 5.63349 21.1671 5.58195C20.7739 5.52501 20.4854 5.25682 20.4266 4.86362C20.3929 4.6387 20.3658 4.41251 20.3356 4.18664C20.1572 2.85146 18.8101 1.85476 17.4859 2.10863C17.1064 2.18148 16.7425 2.34595 16.378 2.48529C15.9683 2.64213 15.6022 2.55178 15.3328 2.20216C15.223 2.05932 15.1152 1.91489 15.0058 1.77173C13.9863 0.438136 12.0438 0.427319 11.0113 1.74978C10.8841 1.91266 10.7638 2.08095 10.635 2.24256C10.398 2.53905 10.0316 2.63895 9.67819 2.50342C9.50038 2.43503 9.32576 2.35804 9.15017 2.28391Z" stroke="white" stroke-width="1.5" stroke-miterlimit="10"/>
<path d="M9.75853 12.0485C10.2121 12.0485 10.6556 11.914 11.0327 11.662C11.4099 11.41 11.7038 11.0518 11.8774 10.6327C12.051 10.2136 12.0964 9.75251 12.0079 9.30762C11.9194 8.86273 11.701 8.45407 11.3803 8.13332C11.0595 7.81257 10.6509 7.59414 10.206 7.50565C9.76108 7.41715 9.29994 7.46257 8.88086 7.63616C8.46178 7.80975 8.10359 8.10371 7.85158 8.48087C7.59957 8.85803 7.46506 9.30144 7.46506 9.75505C7.46573 10.3631 7.70757 10.9461 8.13754 11.376C8.5675 11.806 9.15047 12.0479 9.75853 12.0485ZM9.75853 8.99056C9.90974 8.99056 10.0575 9.0354 10.1833 9.1194C10.309 9.2034 10.407 9.3228 10.4648 9.46249C10.5227 9.60218 10.5378 9.7559 10.5083 9.90419C10.4788 10.0525 10.406 10.1887 10.2991 10.2956C10.1922 10.4025 10.056 10.4754 9.90768 10.5048C9.75938 10.5343 9.60567 10.5192 9.46598 10.4613C9.32628 10.4035 9.20689 10.3055 9.12288 10.1798C9.03888 10.0541 8.99404 9.90625 8.99404 9.75505C8.99418 9.55234 9.07477 9.35796 9.21811 9.21462C9.36145 9.07128 9.55582 8.9907 9.75853 8.99056ZM16.2448 13.9478C15.7911 13.9478 15.3477 14.0823 14.9706 14.3343C14.5934 14.5863 14.2995 14.9445 14.1259 15.3636C13.9523 15.7827 13.9069 16.2438 13.9954 16.6887C14.0838 17.1336 14.3023 17.5423 14.623 17.863C14.9438 18.1837 15.3524 18.4022 15.7973 18.4907C16.2422 18.5792 16.7033 18.5337 17.1224 18.3602C17.5415 18.1866 17.8997 17.8926 18.1517 17.5155C18.4037 17.1383 18.5382 16.6949 18.5382 16.2413C18.5376 15.6332 18.2957 15.0502 17.8657 14.6203C17.4358 14.1903 16.8528 13.9485 16.2448 13.9478ZM16.2448 17.0058C16.0936 17.0058 15.9457 16.9609 15.82 16.8769C15.6943 16.7929 15.5963 16.6735 15.5385 16.5338C15.4806 16.3941 15.4655 16.2404 15.495 16.0921C15.5245 15.9438 15.5973 15.8076 15.7042 15.7007C15.8111 15.5938 15.9473 15.521 16.0956 15.4915C16.2439 15.462 16.3976 15.4771 16.5373 15.535C16.677 15.5928 16.7964 15.6908 16.8804 15.8165C16.9644 15.9423 17.0092 16.0901 17.0092 16.2413C17.0091 16.444 16.9285 16.6384 16.7852 16.7817C16.6418 16.925 16.4475 17.0056 16.2448 17.0058ZM18.8936 7.10624C18.8226 7.03523 18.7383 6.9789 18.6456 6.94047C18.5528 6.90204 18.4534 6.88226 18.353 6.88226C18.2527 6.88226 18.1532 6.90204 18.0605 6.94047C17.9678 6.9789 17.8835 7.03523 17.8125 7.10624L7.10968 17.8091C7.03796 17.8799 6.98096 17.9642 6.94196 18.0571C6.90295 18.1501 6.88271 18.2498 6.88239 18.3506C6.88208 18.4514 6.9017 18.5512 6.94012 18.6444C6.97855 18.7376 7.03502 18.8223 7.10629 18.8935C7.17756 18.9648 7.26222 19.0213 7.35539 19.0597C7.44857 19.0981 7.54843 19.1177 7.64921 19.1174C7.75 19.1171 7.84973 19.0968 7.94266 19.0578C8.03559 19.0188 8.11989 18.9618 8.19071 18.8901L18.8936 8.18723C18.9646 8.11626 19.0209 8.032 19.0593 7.93926C19.0977 7.84652 19.1175 7.74712 19.1175 7.64673C19.1175 7.54635 19.0977 7.44694 19.0593 7.3542C19.0209 7.26147 18.9646 7.1772 18.8936 7.10624Z" fill="white"/>
</g>
</svg>
